<svg width="36" height="36" viewBox="0 0 36 36" fill="none" xmlns="http://www.w3.org/2000/svg">
<path d="M20.752 19.5869C19.8749 21.1062 17.9322 21.6267 16.413 20.7496C14.8937 19.8724 14.3732 17.9298 15.2503 16.4105C16.1275 14.8912 18.0701 14.3707 19.5893 15.2478C21.1086 16.125 21.6291 18.0676 20.752 19.5869Z" fill="white"/>
<path d="M24.5983 10.8062C24.0136 11.8189 22.7185 12.166 21.7056 11.5812C20.6928 10.9964 20.3458 9.70138 20.9306 8.68854C21.5152 7.67572 22.8104 7.3287 23.8232 7.91345C24.836 8.49821 25.183 9.79331 24.5983 10.8062Z" fill="white"/>
<path d="M20.9306 27.3086C20.3458 26.2958 20.6928 25.0007 21.7056 24.4159C22.7185 23.8311 24.0136 24.1782 24.5983 25.191C25.1831 26.2038 24.836 27.4989 23.8232 28.0837C22.8104 28.6684 21.5153 28.3214 20.9306 27.3086Z" fill="white"/>
<path d="M27.5297 20.116C26.3602 20.116 25.4121 19.168 25.4121 17.9985C25.4121 16.829 26.3602 15.8809 27.5297 15.8809C28.6993 15.8809 29.6473 16.829 29.6473 17.9985C29.6473 19.168 28.6993 20.116 27.5297 20.116Z" fill="white"/>
<path d="M15.071 27.3086C14.4862 28.3214 13.1911 28.6685 12.1783 28.0837C11.1654 27.4989 10.8184 26.2038 11.4032 25.191C11.9879 24.1781 13.283 23.8311 14.2959 24.4159C15.3087 25.0007 15.6557 26.2957 15.071 27.3086Z" fill="white"/>
<path d="M11.4031 10.8061C10.8185 9.79331 11.1654 8.49821 12.1783 7.91346C13.1911 7.32869 14.4863 7.67571 15.0709 8.68855C15.6557 9.70137 15.3087 10.9964 14.2959 11.5812C13.283 12.166 11.9879 11.8189 11.4031 10.8061Z" fill="white"/>
<path d="M8.47111 20.116C7.30159 20.116 6.35352 19.1679 6.35352 17.9985C6.35352 16.8289 7.30159 15.8809 8.47111 15.8809C9.64063 15.8809 10.5887 16.8289 10.5887 17.9985C10.5887 19.1679 9.64063 20.116 8.47111 20.116Z" fill="white"/>
<path d="M27.388 3.85937C27.0957 4.36579 26.4481 4.53929 25.9417 4.24691C25.4353 3.95454 25.2617 3.30699 25.5542 2.80058C25.8465 2.29415 26.4941 2.12065 27.0005 2.41302C27.5069 2.7054 27.6805 3.35295 27.388 3.85937Z" fill="white"/>
<path d="M34.9397 19.0585C34.3549 19.0585 33.8809 18.5844 33.8809 17.9997C33.8809 17.4149 34.3549 16.9409 34.9397 16.9409C35.5243 16.9409 35.9985 17.4149 35.9985 17.9997C35.9985 18.5844 35.5243 19.0585 34.9397 19.0585Z" fill="white"/>
<path d="M33.1997 10.4466C32.6932 10.7391 32.0458 10.5655 31.7533 10.0591C31.461 9.55266 31.6344 8.90511 32.1409 8.61273C32.6473 8.32036 33.2948 8.49386 33.5873 9.00028C33.8796 9.50669 33.7061 10.1542 33.1997 10.4466Z" fill="white"/>
<path d="M32.1409 27.387C31.6345 27.0947 31.461 26.4471 31.7534 25.9407C32.0457 25.4343 32.6933 25.2608 33.1997 25.5532C33.7061 25.8455 33.8797 26.4931 33.5872 26.9995C33.2949 27.5059 32.6473 27.6795 32.1409 27.387Z" fill="white"/>
<path d="M16.9414 34.9401C16.9414 34.3554 17.4154 33.8813 18.0002 33.8813C18.585 33.8813 19.059 34.3554 19.059 34.9401C19.059 35.5249 18.585 35.9989 18.0002 35.9989C17.4154 35.9989 16.9414 35.5249 16.9414 34.9401Z" fill="white"/>
<path d="M25.5541 33.1993C25.2618 32.6928 25.4353 32.0453 25.9417 31.7528C26.4481 31.4605 27.0957 31.634 27.388 32.1405C27.6804 32.6469 27.5069 33.2943 27.0005 33.5868C26.4941 33.8791 25.8465 33.7057 25.5541 33.1993Z" fill="white"/>
<path d="M10.4466 33.1992C10.1542 33.7056 9.50669 33.8792 9.00028 33.5867C8.49387 33.2944 8.32035 32.6468 8.61274 32.1404C8.90511 31.634 9.55266 31.4605 10.0591 31.7529C10.5655 32.0452 10.7391 32.6928 10.4466 33.1992Z" fill="white"/>
<path d="M1.0588 19.0585C0.474039 19.0585 -3.6495e-08 18.5845 0 17.9997C3.6495e-08 17.4149 0.474039 16.9409 1.0588 16.9409C1.64355 16.9409 2.11759 17.4149 2.11759 17.9997C2.11759 18.5845 1.64355 19.0585 1.0588 19.0585Z" fill="white"/>
<path d="M3.85986 27.387C3.35344 27.6795 2.70589 27.5059 2.41351 26.9995C2.12114 26.4931 2.29464 25.8455 2.80106 25.5532C3.30748 25.2608 3.95503 25.4343 4.2474 25.9407C4.53978 26.4471 4.36627 27.0947 3.85986 27.387Z" fill="white"/>
<path d="M2.80106 10.4466C2.29464 10.1542 2.12114 9.50669 2.41351 9.00028C2.70589 8.49387 3.35344 8.32035 3.85986 8.61274C4.36627 8.90511 4.53978 9.55266 4.2474 10.0591C3.95503 10.5655 3.30748 10.7391 2.80106 10.4466Z" fill="white"/>
<path d="M16.9414 1.0588C16.9414 0.474039 17.4154 -5.15874e-08 18.0002 0C18.585 5.15874e-08 19.059 0.474039 19.059 1.0588C19.059 1.64355 18.585 2.11759 18.0002 2.11759C17.4154 2.11759 16.9414 1.64355 16.9414 1.0588Z" fill="white"/>
<path d="M8.61274 3.85937C8.32035 3.35296 8.49387 2.70541 9.00028 2.41302C9.50669 2.12065 10.1542 2.29416 10.4466 2.80057C10.7391 3.30699 10.5655 3.95454 10.0591 4.24691C9.55266 4.5393 8.90511 4.36578 8.61274 3.85937Z" fill="white"/>
</svg>
